<svg id="Layer_1" data-name="Layer 1" xmlns="http://www.w3.org/2000/svg" viewBox="0 0 612 612"><defs><style>.cls-1{fill:#ffc20e;}.cls-2{fill:#010101;}</style></defs><rect class="cls-1" x="-664.83" y="-64.21" width="1945.98" height="740.42"/><path class="cls-2" d="M51.72,561.42q0-52.5-.06-105a8.47,8.47,0,0,1,2.83-6.91c5.08-4.76,10.06-9.66,14.75-14.8,2.71-3,4.18-3.5,7.45-.2Q137,495.27,197.62,555.67c1.86,1.86,3.61,3.83,5.42,5.75Z"/><path class="cls-2" d="M376.69,449.56c-29.86,0-59.72.28-89.58-.11-16.37-.22-28.33,6.21-36.4,20.4-2.1,3.69-3.76,9.71-7.08,10.09s-6.2-5.17-9.21-8.17c-22.33-22.26-44.55-44.62-67-66.79-2.61-2.58-2.56-3.92-.36-6.73,16-20.48,31.5-41.43,47.86-61.65,18.58-23,43.25-34.56,72.7-34.9,36.65-.42,73.32-.16,110-.07,12.21,0,22.16,8.45,23.42,19.38,1.45,12.56-5.42,22.91-17.33,25.78a32,32,0,0,1-7.4.54c-16.59,0-33.18,0-49.77,0-10.58.06-18.61,5.4-21.79,14.2a21.27,21.27,0,0,0,20.34,28.59c37.16.12,74.32,0,111.48,0,2.32,0,4.65-.11,7,0,7.63.42,13.77-2.49,19.06-7.87,11.29-11.47,22.59-22.94,34.13-34.15,13.42-13,33.51-10.06,41.22,6,4.2,8.77,3.33,17.38-2.23,25.36a49.17,49.17,0,0,1-5.61,6.3C532.54,403.5,514.8,421,497.4,438.75a34.49,34.49,0,0,1-26.16,10.86C439.73,449.47,408.21,449.56,376.69,449.56Z"/><path class="cls-2" d="M446.25,259.78a31.09,31.09,0,0,1-21.16-7.7c-7.18-6-9.65-5.78-16.38.93-6.35,6.32-12.65,12.69-19,19-5.41,5.33-9.53,5.35-14.9.06-6.51-6.4-12.93-12.88-19.37-19.35-6.61-6.63-6.69-10.1-.07-16.63,7.7-7.58,12.19-16.34,11.14-27.47-1.17-12.34-7.52-21.14-18.63-26.06s-22-3.52-31.82,3.76a79.89,79.89,0,0,0-6.61,6c-5.27,4.95-9.11,5.07-14.18.11Q284.56,182,274.12,171.32c-5-5.07-4.93-9.12.06-14.18,7.68-7.79,15.47-15.49,23.21-23.23,4.64-4.64,4.68-4.68.15-9.17-6.88-6.8-11.18-14.75-10.86-24.67.42-12.9,6.42-22.51,18-28.08s22.83-4,33.19,3.49a38.87,38.87,0,0,1,6.64,6c2.05,2.34,3.29,2.22,5.44,0,7.95-8.24,16.11-16.27,24.22-24.35,6.24-6.23,9.8-6.27,15.95-.15,6.7,6.67,13.32,13.42,20.06,20.06,5.09,5,9,5,14.08-.08,6.41-6.48,13.28-11.69,22.86-12.69C462.81,62.6,479,74.7,481.85,90.41c1.84,10.18-.8,19-7.48,26.69-1.3,1.5-2.74,2.89-4.13,4.3-6,6.06-6,9.65-.14,15.58,6.55,6.59,13.15,13.13,19.69,19.73,5.66,5.72,5.66,9.45,0,15.22-6.29,6.37-12.66,12.67-19,19-6.51,6.53-6.62,9.22-.71,16.49,13.32,16.4,8.79,39.34-9.74,49.05A27.58,27.58,0,0,1,446.25,259.78Z"/><path class="cls-2" d="M227,541.41,94.62,409c3-2.9,6.23-6.07,9.55-9.06,4.87-4.37,10.13-4.41,15.13-.24,1,.85,1.9,1.85,2.84,2.79L233.36,513.73c8.1,8.11,8,12.6-.15,20.87C231,536.84,229,539.25,227,541.41Z"/></svg>