<?xml version="1.0" encoding="utf-8"?><svg version="1.1" id="Layer_1" xmlns="http://www.w3.org/2000/svg" xmlns:xlink="http://www.w3.org/1999/xlink" x="0px" y="0px" viewBox="0 0 119.8 122.9" style="enable-background:new 0 0 119.8 122.9" xml:space="preserve"><style type="text/css">.st0{fill-rule:evenodd;clip-rule:evenodd;fill:#393939;} .st1{fill-rule:evenodd;clip-rule:evenodd;fill:#D8453E;}</style><g><path class="st0" d="M20.6,0h79.7c1.9,0,3.4,1.5,3.4,3.4c0,1.9-1.5,3.4-3.4,3.4H20.6c-1.9,0-3.4-1.5-3.4-3.4 C17.2,1.5,18.7,0,20.6,0L20.6,0L20.6,0z M118.6,43.2v4.1c0,0.4,0.1,0.8,0.1,1.2c0,6.9-6.4,12.5-14.4,12.5 c-7.9,0-14.4-5.6-14.4-12.5c0-0.3,0-0.6,0-0.9h-0.6c0,0.3,0,0.6,0,0.9c0,6.9-6.4,12.5-14.4,12.5c-7.9,0-14.4-5.6-14.4-12.5 c0-0.3,0-0.6,0-0.9h-0.6c0,0.3,0,0.6,0,0.9c0,6.9-6.4,12.5-14.4,12.5c-7.9,0-14.4-5.6-14.4-12.5c0-0.3,0-0.6,0-0.9h-0.4 c0,0.3,0,0.6,0,0.9c0,6.9-6.4,12.5-14.4,12.5c-7.9,0-14.4-5.6-14.4-12.5c0-0.3,0-0.7,0.1-1v-4.3H118.6L118.6,43.2L118.6,43.2z M16.8,10.4h87.6l11.2,23.8H5.3L16.8,10.4L16.8,10.4L16.8,10.4z M3.4,108h12.1V69.7c0.2,0,0.4,0,0.6,0h0h0.2h0h0h0.2h0h0.1v0h0v0 c5.5,0,10.5-1.8,14.5-4.6l0,0l0,0l0,0l0,0l0,0l0,0l0,0l0,0l0,0l0,0l0,0h0l0.1,0.1l0,0l0,0l0,0l0.1,0l0,0l0,0l0,0l0,0l0,0l0,0l0,0 l0,0.1l0,0l0,0l0,0l0,0l0,0l0,0l0,0l0,0l0,0h0l0.2,0.1l0,0l0,0l0.2,0.1l0,0l0.2,0.1l0,0l0,0l0,0l0,0l0,0l0,0l0,0l0,0V101h3.7 c2.9,6.6,12.2,11.5,23.3,11.5s20.4-4.9,23.3-11.5h3.1V66.9c0.9-0.4,1.7-1,2.5-1.5l0,0h0l0.2-0.1l0,0l0,0l0.1,0l0,0l0.1-0.1h0l0,0 l0.2-0.1c4,2.9,9.1,4.7,14.6,4.7v0h0v0h0V108h12.1c1.9,0,3.4,3.3,3.4,7.4c0,4.1-1.5,7.4-3.4,7.4H3.4c-1.9,0-3.4-3.3-3.4-7.4 C0,111.4,1.5,108,3.4,108L3.4,108L3.4,108z"/><path class="st1" d="M74.5,88.6c0.5,0.8,0.7,1.6,0.7,2.4c0,10.5-30.6,10.5-30.6,0c0-0.8,0.2-1.6,0.7-2.4 C49.8,96.1,70.1,96.1,74.5,88.6L74.5,88.6L74.5,88.6z M65.4,72l-0.2,2l-7.5-0.7c0.6,0.8,1,1.7,1.3,2.7l-1.8-0.2 c-0.1-0.5-0.4-1.1-0.8-1.8c-0.4-0.7-0.9-1.1-1.6-1.4l0.1-1.6L65.4,72L65.4,72L65.4,72L65.4,72z M59.9,68.9c6.9,0,12.6,2.2,12.6,4.9 c0,2.7-5.6,4.9-12.6,4.9s-12.6-2.2-12.6-4.9C47.3,71.1,53,68.9,59.9,68.9L59.9,68.9L59.9,68.9z M59.9,67.3c8.4,0,15.3,3.6,15.3,8 c0,10.5-30.6,10.5-30.6,0C44.6,70.9,51.5,67.3,59.9,67.3L59.9,67.3L59.9,67.3z M74.6,80.6c0.4,0.7,0.6,1.5,0.6,2.3 c0,10.5-30.6,10.5-30.6,0c0-0.8,0.2-1.6,0.6-2.3C49.6,88.2,70.2,88.2,74.6,80.6L74.6,80.6L74.6,80.6L74.6,80.6z M74.5,96.7 c0.5,0.8,0.7,1.6,0.7,2.4c0,10.5-30.6,10.5-30.6,0c0-0.8,0.3-1.7,0.7-2.4C49.8,104.1,70,104.1,74.5,96.7L74.5,96.7L74.5,96.7 L74.5,96.7z"/></g></svg>