<svg id="Layer_1" data-name="Layer 1" xmlns="http://www.w3.org/2000/svg" viewBox="0 0 612 612"><defs><style>.cls-1{fill:#ffc20e;}.cls-2{fill:#020202;}.cls-3{fill:#010101;}.cls-4{fill:#0e0c0c;}</style></defs><rect class="cls-1" x="-1296.83" y="-64.21" width="1945.98" height="740.42"/><path class="cls-2" d="M529.89,255.81c-2.38,5.76-5,11.33-10.66,14.75-1.57.95-3.05,2.16-5.22,2.23V228.12c9,3.06,13.33,9.78,15.88,18.09Z"/><path class="cls-3" d="M498.14,250.55c0,43.62-.06,87.25.1,130.87,0,4.3-1.28,5-5.33,5.19-26.9,1.4-51.2-7.32-75.41-17.68-46.28-19.81-92.88-38.87-139.39-58.13-2.78-1.16-3.91-2.43-3.9-5.63q.21-54.74.05-109.49c0-2.39.37-3.83,2.95-4.89q81.8-33.87,163.5-67.93c17.52-7.27,36-8.51,54.68-8.14,2.06,0,2.83.7,2.78,2.79-.1,4.79,0,9.59,0,14.39Z"/><path class="cls-3" d="M194.74,306.44q-27.92,0-55.83,0c-28.77-.05-53.26-22.06-55.81-50.1a56,56,0,0,1,46.53-60.9,47.57,47.57,0,0,1,8.23-.71c39,0,77.93,0,116.89-.08,2.95,0,3.89.55,3.88,3.72q-.19,52.13,0,104.25c0,3.49-1.12,3.91-4.15,3.89C234.57,306.37,214.66,306.44,194.74,306.44Z"/><path class="cls-3" d="M210.73,409.85c0,27.93-.07,55.85.08,83.77,0,3.6-.86,4.78-4.55,4.58-5.8-.32-11.63-.17-17.44,0-2.37,0-3.46-.39-3.91-3.15-4.17-25.75-8.56-51.47-12.86-77.2q-6.77-40.53-13.51-81.07c-.67-4-1.36-8-2.1-12-.34-1.83.1-2.58,2.16-2.57q24.87.1,49.74,0c3.34,0,2.35,2.28,2.36,3.91q.08,27,0,54.1Z"/><path class="cls-4" d="M234.79,342.23c0,5.81-.18,11.63.06,17.43.15,3.62-2.25,2.68-4,2.59s-4.52,1.36-4.47-2.63q.25-17.22,0-34.45c-.06-4.15,2.73-2.73,4.74-2.93,2.16-.22,3.92-.26,3.76,3C234.59,330.88,234.79,336.56,234.79,342.23Z"/><path class="cls-1" d="M450.28,250.65q0-54.09,0-108.16c0-1.46-.05-2.92.07-4.36a7.73,7.73,0,0,1,15.05-1.81,14.53,14.53,0,0,1,.63,5.16q0,109,0,218.06c0,3-.11,5.89-2.31,8.14s-4.9,3.2-7.94,2.13-5.19-3.17-5.43-6.64c-.09-1.45-.07-2.91-.07-4.36Q450.28,304.72,450.28,250.65Z"/></svg>