<svg id="Layer_1" data-name="Layer 1" xmlns="http://www.w3.org/2000/svg" viewBox="0 0 612 612"><defs><style>.cls-1{fill:#ffc20e;}.cls-2{fill:#010101;}</style></defs><rect class="cls-1" x="-32.83" y="-64.21" width="1945.98" height="740.42"/><path class="cls-2" d="M306.47,96.6q94.62,0,189.25,0c20.45,0,35.68,11.3,41.23,30.39a44,44,0,0,1,1.66,12.42c0,38,.06,76,0,114.05-.05,20.51-11.61,35.77-31.08,41.22a48.12,48.12,0,0,1-12.94,1.55q-188.49,0-377,0c-21.52,0-36.9-11.13-42.55-30.73a48.22,48.22,0,0,1-1.65-13.44q0-55.76,0-111.52c0-26.44,17.45-43.93,43.81-43.94Q211.86,96.57,306.47,96.6Z"/><path class="cls-2" d="M265.6,510.39c-35.32,0-70.65-.07-106,.09-3.79,0-4.65-.92-4.64-4.66q.21-78.72,0-157.42c0-3.32,1.08-5,3.79-6.75a52.51,52.51,0,0,1,26.53-8.44c16.43-.57,32.93-1.82,49.26,1.58,11.62,2.42,21.51,7.6,28.08,17.81,8,12.38,19,18.13,33.85,17.71,15.63-.43,31.29-.33,46.92,0,22.46.44,37,22.39,28.8,42.9-1.46,3.67-3.18,5.41-7.59,5.36-23.21-.29-46.42-.24-69.63-.12-10.25.05-16.76,9.07-13.75,18.58a13.81,13.81,0,0,0,13.33,9.73c31.27-.2,62.57,1.25,93.81-1,22.58-1.63,43.34-9.43,63.78-18.58,27-12.1,54.25-23.75,81.33-35.73,2.93-1.3,4.67-.95,6.87,1.43a27.28,27.28,0,0,1-3.08,39.74c-6.36,5-13.64,8.52-20.59,12.56-27.22,15.86-54.32,31.94-81.84,47.29-21.43,11.95-44.82,17.69-69.37,17.86-33.3.24-66.6.06-99.9.06Z"/><path class="cls-2" d="M62.92,442.76c0-20.85.08-41.7-.08-62.55,0-3.45.73-4.54,4.37-4.51q27.5.3,55,0c3.49,0,4.51.91,4.5,4.47q-.18,63.06,0,126.12c0,3.34-.92,4.18-4.21,4.15q-27.73-.22-55.49,0c-3.29,0-4.18-.83-4.16-4.14C63,485.13,62.92,464,62.92,442.76Z"/><path class="cls-1" d="M256,198c0-14-.06-27.92,0-41.88,0-9.44,5.54-15.32,14.85-15.39q34.58-.23,69.14,0c7,0,12.42,4.29,13.93,10.23a14.44,14.44,0,0,1-6.07,15.85c-3.07,1.95-6.54,2.42-10.13,2.41-16.32,0-32.64.1-48.95-.1-3.54,0-4.5.91-4.44,4.45.17,10.3,0,10.27,10.24,10.32,8.57,0,17.16-.11,25.71.39,6.66.4,11.52,5.85,12.27,12.62.65,5.78-3.32,12.3-9,14.4a22.07,22.07,0,0,1-7.93,1.18c-8.91,0-17.83.13-26.74-.09-3.36-.08-4.65.62-4.6,4.34.16,10.27,0,10.27,10.19,10.27,14.64,0,29.28-.1,43.91,0,10.54.1,17,7,15.73,16.4a13.33,13.33,0,0,1-11.39,11.74,62.34,62.34,0,0,1-8.54.46q-30.28,0-60.56,0c-12.58,0-17.68-5.19-17.68-17.79Q256,217.89,256,198Z"/><path class="cls-1" d="M175.54,253.86c-9.61,0-17.19.2-24.75-.05-6.79-.23-12.13-4.28-13.8-9.88a14.48,14.48,0,0,1,4.65-15.45c3.19-2.68,6.94-3.13,10.87-3.12h37.34c1.35,0,2.7,0,4,0,6.24-.1,9.55-2.46,9.42-6.71s-3.15-6.09-9.21-6.24c-9.07-.22-18.13.4-27.21-.59C150,210,136.49,195,136.31,177.47S150,144.34,167.1,142.86c16.62-1.44,33.28-.58,49.91-.51,9,0,15,6.4,14.81,14.48s-6.14,13.83-15.34,14c-13.28.24-26.57.07-39.86.07-1.51,0-3,0-4.54,0-4,.2-6.9,1.78-7,6.21-.11,4.73,3,6.5,7.12,6.65,5.21.18,10.43,0,15.64.07,6.86.06,13.73-.28,20.41,2,14.72,5.06,25,20.56,23.42,35.54-1.83,17.17-14.09,29.82-30.46,31.86C192,254.42,182.73,253.45,175.54,253.86Z"/><path class="cls-1" d="M377.19,197.74c.12-10-.56-20.08,2.86-29.86,5.1-14.56,20.17-26.22,35.62-27,9.05-.43,18.23-1.34,27.1.76,20.44,4.84,32.63,20.52,33,42.35.19,11.57.45,23.15-.51,34.74-1.52,18.13-18.53,35.15-36.6,36.35-9.56.64-19.24,1.52-28.56-.76-20.5-5-32.59-21.07-32.89-42.51C377.14,207.15,377.19,202.44,377.19,197.74Z"/><path class="cls-2" d="M447.21,198c0,5,.18,10.09,0,15.12-.36,8.53-5.58,13.59-14.05,13.8-4.36.11-8.74.11-13.11,0-8.38-.2-14-5.33-14.23-13.71-.31-10.07-.3-20.17,0-30.24.25-8.58,6-13.72,14.65-13.8,4.54,0,9.08-.08,13.62,0A12.86,12.86,0,0,1,447,181.38c.37,5.52.08,11.08.08,16.63Z"/></svg>