<?xml version="1.0" encoding="utf-8"?>
<!-- Generator: Adobe Illustrator 24.2.3, SVG Export Plug-In . SVG Version: 6.00 Build 0)  -->
<svg version="1.1" id="Layer_1" xmlns="http://www.w3.org/2000/svg" xmlns:xlink="http://www.w3.org/1999/xlink" x="0px" y="0px"
	 viewBox="0 0 612 612" style="enable-background:new 0 0 612 612;" xml:space="preserve">
<style type="text/css">
	.st0{fill:#FFC20E;}
	.st1{fill-rule:evenodd;clip-rule:evenodd;fill:#FFC20E;}
</style>
<g>
	<g>
		<g>
			<path class="st0" d="M221.6,366.5h11.6v3.3H229v13.9h-3.4v-13.9h-4V366.5z"/>
			<path class="st0" d="M236.4,366.5h11.7v3.3h-8.3v3.7h7.4v3.3h-7.4v3.7h8.7v3.3h-12V366.5z"/>
			<path class="st0" d="M256.8,380.1c0,1.5-0.3,2.8-0.9,3.8s-1.4,1.9-2.5,2.4c-1,0.6-2.3,0.9-3.7,0.9V384c1.1-0.1,1.9-0.4,2.6-1
				c0.7-0.6,1-1.6,1-3v-13.5h3.4V380.1z"/>
			<path class="st0" d="M259.3,383.7l7.7-17.8h0.2l7.7,17.8h-3.9l-4.9-12.6l2.5-1.7l-5.9,14.2H259.3z M264.6,377.5h5.2l1.2,2.8h-7.4
				L264.6,377.5z"/>
			<path class="st0" d="M282.7,366.5c1.1,0,2,0.1,2.9,0.4c0.8,0.3,1.5,0.7,2.1,1.2c0.6,0.5,1,1.1,1.3,1.8s0.4,1.5,0.4,2.4
				c0,0.7-0.1,1.4-0.3,2.1s-0.6,1.3-1,1.9c-0.5,0.6-1.1,1-1.9,1.4c-0.8,0.3-1.7,0.5-2.9,0.5h-2.4v5.5h-3.4v-17.2H282.7z M283.3,375
				c0.5,0,0.9-0.1,1.3-0.3c0.3-0.2,0.6-0.4,0.8-0.7c0.2-0.3,0.3-0.5,0.4-0.8c0.1-0.3,0.1-0.6,0.1-0.8c0-0.2,0-0.4-0.1-0.7
				c-0.1-0.3-0.2-0.6-0.3-0.9c-0.2-0.3-0.4-0.5-0.8-0.7c-0.4-0.2-0.8-0.3-1.4-0.3h-2.4v5.2H283.3z M286.5,377.1l4.2,6.6h-3.9
				l-4.3-6.5L286.5,377.1z"/>
			<path class="st0" d="M291.6,383.7l7.7-17.8h0.2l7.7,17.8h-3.9l-4.9-12.6l2.5-1.7l-5.9,14.2H291.6z M296.9,377.5h5.2l1.2,2.8h-7.4
				L296.9,377.5z"/>
			<path class="st0" d="M308.6,366.5h11.6v3.3H316v13.9h-3.4v-13.9h-4V366.5z"/>
			<path class="st0" d="M323.4,366.5h3.4v17.2h-3.4V366.5z"/>
			<path class="st0" d="M340.4,370.7c-0.7-0.4-1.3-0.7-2-0.9c-0.7-0.2-1.3-0.3-1.9-0.3c-0.7,0-1.3,0.1-1.7,0.4s-0.6,0.7-0.6,1.3
				c0,0.4,0.2,0.8,0.5,1.1c0.3,0.3,0.7,0.6,1.2,0.9c0.5,0.2,1,0.5,1.6,0.7c0.5,0.2,1,0.4,1.5,0.7c0.5,0.3,0.9,0.6,1.3,1
				c0.4,0.4,0.7,0.9,0.9,1.4c0.2,0.6,0.3,1.3,0.3,2.1c0,0.9-0.2,1.7-0.7,2.4c-0.5,0.7-1.1,1.3-2,1.8c-0.9,0.5-1.9,0.7-3.2,0.7
				c-0.7,0-1.3-0.1-2-0.2c-0.7-0.1-1.3-0.3-2-0.6s-1.3-0.6-1.9-1l1.5-2.6c0.4,0.3,0.8,0.6,1.3,0.8c0.5,0.2,1,0.4,1.4,0.5
				c0.5,0.1,0.9,0.2,1.3,0.2c0.4,0,0.8-0.1,1.2-0.2c0.4-0.1,0.8-0.3,1-0.6c0.3-0.3,0.4-0.7,0.4-1.2c0-0.3-0.1-0.7-0.3-0.9
				c-0.2-0.3-0.5-0.5-0.9-0.8s-0.8-0.4-1.2-0.6c-0.5-0.2-1.1-0.4-1.6-0.7c-0.6-0.3-1.1-0.6-1.6-1c-0.5-0.4-0.9-0.9-1.2-1.4
				c-0.3-0.6-0.5-1.3-0.5-2.1c0-1,0.2-1.9,0.7-2.6c0.4-0.7,1.1-1.3,1.9-1.7c0.8-0.4,1.7-0.7,2.8-0.7c1.4,0,2.5,0.2,3.4,0.5
				c0.9,0.3,1.6,0.7,2.3,1.2L340.4,370.7z"/>
			<path class="st0" d="M343.7,366.5h11.6v3.3h-4.2v13.9h-3.4v-13.9h-4V366.5z"/>
			<path class="st0" d="M356.6,383.7l7.7-17.8h0.2l7.7,17.8h-3.9l-4.9-12.6l2.5-1.7l-5.9,14.2H356.6z M361.9,377.5h5.2l1.2,2.8h-7.4
				L361.9,377.5z"/>
			<path class="st0" d="M390.1,384.4l-13-11.8l1,0.6l0.1,10.5h-3.4v-17.8h0.1l12.7,11.7l-0.7-0.3l-0.1-10.7h3.4L390.1,384.4
				L390.1,384.4z"/>
		</g>
	</g>
	<g>
		<path class="st0" d="M229.6,421c-1.6,0-3-0.1-4.1-0.3c-1.1-0.2-1.9-0.6-2.5-1.2c-0.6-0.6-1-1.3-1.3-2.3c-0.2-1-0.4-2.2-0.4-3.7
			c0-0.9,0-1.7,0.1-2.6c0.1-0.9,0.2-1.7,0.4-2.5c0.2-0.8,0.3-1.6,0.6-2.4l4.1,0.7c-0.3,1-0.5,2.1-0.6,3.1c-0.1,1-0.2,2-0.2,3
			c0,0.7,0,1.4,0.1,1.9c0,0.5,0.1,1.1,0.2,1.5h4.4c1.1,0,1.9-0.1,2.4-0.3c0.5-0.2,0.8-0.7,0.8-1.3v-15.4h4.4v14.6
			c0,1.4-0.1,2.6-0.3,3.6c-0.2,1-0.6,1.7-1.2,2.3c-0.6,0.5-1.5,0.9-2.6,1.2C232.9,420.9,231.4,421,229.6,421z M229.8,395.5
			c-0.3,0-0.6-0.1-1-0.4c-0.4-0.3-0.7-0.6-1-1c-0.3-0.4-0.4-0.7-0.4-1c0-0.3,0.1-0.6,0.4-1c0.3-0.4,0.6-0.7,1-1
			c0.4-0.3,0.7-0.4,1-0.4c0.3,0,0.6,0.1,1,0.4c0.4,0.3,0.7,0.6,1,1c0.3,0.4,0.4,0.7,0.4,1c0,0.3-0.1,0.6-0.4,1c-0.3,0.4-0.6,0.7-1,1
			C230.4,395.3,230.1,395.5,229.8,395.5z"/>
		<path class="st0" d="M242.9,413.6v-19.5h4.4v14.6h2.4v4.9H242.9z M249.6,413.6v-4.9c0.2,0,0.4,0.2,0.5,0.7c0.1,0.4,0.2,1,0.2,1.8
			c0,0.8-0.1,1.4-0.2,1.8C250,413.4,249.8,413.6,249.6,413.6z"/>
		<path class="st0" d="M249.6,413.6c-0.2,0-0.4-0.2-0.5-0.6s-0.2-1-0.2-1.8c0-0.7,0.1-1.3,0.2-1.8s0.3-0.7,0.5-0.7V413.6z
			 M249.6,413.6v-4.9h7.5v4.9H249.6z M257.1,413.6v-4.9c0.2,0,0.4,0.2,0.5,0.7c0.1,0.4,0.2,1,0.2,1.8c0,0.8-0.1,1.4-0.2,1.8
			C257.5,413.4,257.4,413.6,257.1,413.6z"/>
		<path class="st0" d="M257.1,413.6c-0.2,0-0.4-0.2-0.5-0.6c-0.1-0.4-0.2-1-0.2-1.8c0-0.7,0.1-1.3,0.2-1.8c0.1-0.4,0.3-0.7,0.5-0.7
			V413.6z M257.1,413.6v-4.9h6.3l-2.3,2.2v-11.9h4.4v14.5H257.1z M260.6,395.5c-0.3,0-0.6-0.1-1-0.4c-0.4-0.3-0.7-0.6-1-1
			c-0.3-0.4-0.4-0.7-0.4-1c0-0.3,0.1-0.6,0.4-1c0.3-0.4,0.6-0.7,1-1c0.4-0.3,0.7-0.4,1-0.4s0.6,0.1,1,0.4c0.4,0.3,0.7,0.6,1,1
			c0.3,0.4,0.4,0.7,0.4,1c0,0.3-0.1,0.6-0.4,1c-0.3,0.4-0.6,0.7-1,1C261.3,395.3,260.9,395.5,260.6,395.5z M266.2,395.5
			c-0.3,0-0.6-0.1-1-0.4c-0.4-0.3-0.7-0.6-1-1c-0.3-0.4-0.4-0.7-0.4-1c0-0.3,0.1-0.6,0.4-1c0.3-0.4,0.6-0.7,1-1
			c0.4-0.3,0.7-0.4,1-0.4c0.3,0,0.6,0.1,1,0.4c0.4,0.3,0.7,0.6,1,1c0.3,0.4,0.4,0.7,0.4,1c0,0.3-0.1,0.6-0.4,1c-0.3,0.4-0.6,0.7-1,1
			C266.8,395.3,266.5,395.5,266.2,395.5z M265.6,413.6v-4.9h2.4v4.9H265.6z M268,413.6v-4.9c0.2,0,0.4,0.2,0.5,0.7
			c0.1,0.4,0.2,1,0.2,1.8c0,0.8-0.1,1.4-0.2,1.8C268.3,413.4,268.2,413.6,268,413.6z"/>
		<path class="st0" d="M268,413.6c-0.2,0-0.4-0.2-0.5-0.6c-0.1-0.4-0.2-1-0.2-1.8c0-0.7,0.1-1.3,0.2-1.8c0.1-0.4,0.3-0.7,0.5-0.7
			V413.6z M268,413.6v-4.9h4.1v-6.9h4.4v11.7H268z M276.4,413.6v-4.9h3.9c0.8,0,1.3-0.1,1.7-0.3c0.4-0.2,0.6-0.7,0.6-1.3v-5.2h4.4
			v4.3c0,1.5-0.1,2.7-0.3,3.7c-0.2,1-0.6,1.7-1.2,2.3c-0.6,0.5-1.4,0.9-2.4,1.2c-1.1,0.2-2.4,0.3-4.1,0.3H276.4z M289.9,413.6
			c-1.5,0-2.7-0.1-3.7-0.3c-1-0.2-1.7-0.6-2.2-1.2c-0.5-0.5-0.9-1.3-1.1-2.3c-0.2-1-0.3-2.2-0.3-3.7v-4.3h4.4v5.2
			c0,0.7,0.2,1.1,0.6,1.3c0.4,0.2,1,0.3,1.7,0.3h3.6c0.1-0.4,0.2-0.9,0.2-1.4c0-0.5,0.1-1.1,0.1-1.7c0-1-0.1-1.9-0.2-2.9
			c-0.2-1-0.4-2-0.6-3l4.3-0.6c0.2,0.6,0.4,1.3,0.5,2c0.1,0.7,0.2,1.4,0.3,2.1c0.1,0.7,0.1,1.4,0.1,2.1c0,2.2-0.3,3.8-0.8,5
			c-0.5,1.2-1.4,2-2.5,2.5C293.1,413.4,291.6,413.6,289.9,413.6z M289.7,413.6l5.2-4.9h5v4.9H289.7z M299.9,413.6v-4.9
			c0.2,0,0.4,0.2,0.5,0.7c0.1,0.4,0.2,1,0.2,1.8c0,0.8-0.1,1.4-0.2,1.8C300.3,413.4,300.1,413.6,299.9,413.6z"/>
		<path class="st0" d="M299.9,413.6c-0.2,0-0.4-0.2-0.5-0.6c-0.1-0.4-0.2-1-0.2-1.8c0-0.7,0.1-1.3,0.2-1.8c0.1-0.4,0.3-0.7,0.5-0.7
			V413.6z M299.9,413.6v-4.9h6.3l-2.3,2.2v-11.9h4.4v14.5H299.9z M300.9,395.5c-0.3,0-0.6-0.1-1-0.4c-0.4-0.3-0.7-0.6-1-1
			c-0.3-0.4-0.4-0.7-0.4-1c0-0.3,0.1-0.6,0.4-1c0.3-0.4,0.6-0.7,1-1c0.4-0.3,0.7-0.4,1-0.4s0.6,0.1,1,0.4c0.4,0.3,0.7,0.6,1,1
			c0.3,0.4,0.4,0.7,0.4,1c0,0.3-0.1,0.6-0.4,1c-0.3,0.4-0.6,0.7-1,1C301.5,395.3,301.1,395.5,300.9,395.5z M306.4,395.5
			c-0.3,0-0.6-0.1-1-0.4c-0.4-0.3-0.7-0.6-1-1c-0.3-0.4-0.4-0.7-0.4-1c0-0.3,0.1-0.6,0.4-1c0.3-0.4,0.6-0.7,1-1
			c0.4-0.3,0.7-0.4,1-0.4c0.3,0,0.6,0.1,1,0.4c0.4,0.3,0.7,0.6,1,1c0.3,0.4,0.4,0.7,0.4,1c0,0.3-0.1,0.6-0.4,1c-0.3,0.4-0.6,0.7-1,1
			C307,395.3,306.7,395.5,306.4,395.5z"/>
		<path class="st0" d="M312.9,422.2l-1.6-3.9c0.8-0.4,1.4-0.8,1.9-1.2c0.4-0.4,0.7-0.9,0.9-1.6c0.2-0.7,0.2-1.5,0.2-2.6v-13.9h4.3
			v13.9c0,1.6-0.2,3.1-0.6,4.2c-0.4,1.2-1,2.2-1.8,3C315.4,420.9,314.3,421.6,312.9,422.2z"/>
		<path class="st0" d="M323.4,413.6v-19.5h4.4v14.6h2.4v4.9H323.4z M330.1,413.6v-4.9c0.2,0,0.4,0.2,0.5,0.7c0.1,0.4,0.2,1,0.2,1.8
			c0,0.8-0.1,1.4-0.2,1.8C330.5,413.4,330.3,413.6,330.1,413.6z"/>
		<path class="st0" d="M330.1,413.6c-0.2,0-0.4-0.2-0.5-0.6c-0.1-0.4-0.2-1-0.2-1.8c0-0.7,0.1-1.3,0.2-1.8c0.1-0.4,0.3-0.7,0.5-0.7
			V413.6z M330.1,413.6v-4.9h7.5v4.9H330.1z M337.7,413.6v-4.9c0.2,0,0.4,0.2,0.5,0.7c0.1,0.4,0.2,1,0.2,1.8c0,0.8-0.1,1.4-0.2,1.8
			C338,413.4,337.9,413.6,337.7,413.6z"/>
		<path class="st0" d="M337.7,413.6c-0.2,0-0.4-0.2-0.5-0.6c-0.1-0.4-0.2-1-0.2-1.8c0-0.7,0.1-1.3,0.2-1.8c0.1-0.4,0.3-0.7,0.5-0.7
			V413.6z M337.7,413.6v-4.9h7.5v4.9H337.7z M345.2,413.6v-4.9c0.2,0,0.4,0.2,0.5,0.7c0.1,0.4,0.2,1,0.2,1.8c0,0.8-0.1,1.4-0.2,1.8
			C345.6,413.4,345.4,413.6,345.2,413.6z"/>
		<path class="st0" d="M345.2,413.6c-0.2,0-0.4-0.2-0.5-0.6c-0.1-0.4-0.2-1-0.2-1.8c0-0.7,0.1-1.3,0.2-1.8c0.1-0.4,0.3-0.7,0.5-0.7
			V413.6z M345.2,413.6v-4.9h7.5v4.9H345.2z M352.7,413.6v-4.9c0.2,0,0.4,0.2,0.5,0.7c0.1,0.4,0.2,1,0.2,1.8c0,0.8-0.1,1.4-0.2,1.8
			C353.1,413.4,353,413.6,352.7,413.6z"/>
		<path class="st0" d="M352.7,413.6c-0.2,0-0.4-0.2-0.5-0.6c-0.1-0.4-0.2-1-0.2-1.8c0-0.7,0.1-1.3,0.2-1.8c0.1-0.4,0.3-0.7,0.5-0.7
			V413.6z M352.7,413.6v-4.9h7.5v4.9H352.7z M360.3,413.6v-4.9c0.2,0,0.4,0.2,0.5,0.7c0.1,0.4,0.2,1,0.2,1.8c0,0.8-0.1,1.4-0.2,1.8
			C360.6,413.4,360.5,413.6,360.3,413.6z"/>
		<path class="st0" d="M360.3,413.6c-0.2,0-0.4-0.2-0.5-0.6c-0.1-0.4-0.2-1-0.2-1.8c0-0.7,0.1-1.3,0.2-1.8c0.1-0.4,0.3-0.7,0.5-0.7
			V413.6z M360.3,413.6v-4.9h5.8c0.8,0,1.6-0.1,2.2-0.4c0.6-0.2,1.1-0.6,1.6-1c0.4-0.4,0.8-0.9,1.1-1.4c0.3-0.5,0.5-1.1,0.7-1.7
			l4,1.4c-0.4,1.5-1,2.7-1.6,3.7c-0.7,1-1.4,1.9-2.3,2.5c-0.9,0.6-1.8,1.1-2.9,1.4c-1,0.3-2.1,0.4-3.2,0.4H360.3z M376.5,413.6
			c-0.7,0-1.2-0.1-1.6-0.4c-0.4-0.3-0.7-0.7-0.9-1.3l-1.9-4.8c-0.3-0.8-0.7-1.5-1.2-2c-0.5-0.5-1.1-0.9-1.8-1.1
			c-0.7-0.2-1.7-0.4-2.8-0.4c-0.5,0-1.1,0-1.7,0c-0.6,0-1.3,0.1-2,0.2l-0.6-4.8c0.8-0.1,1.6-0.2,2.3-0.2c0.7-0.1,1.4-0.1,2-0.1
			c1.8,0,3.3,0.2,4.6,0.7s2.3,1.2,3.1,2.1c0.8,1,1.5,2.2,2.1,3.8l1.3,3.5h1.8v4.9H376.5z M369.7,420.9c-0.3,0-0.6-0.1-1-0.4
			c-0.4-0.3-0.7-0.6-1-1c-0.3-0.4-0.4-0.7-0.4-1c0-0.3,0.1-0.6,0.4-1c0.3-0.4,0.6-0.7,1-1c0.4-0.3,0.7-0.4,1-0.4s0.6,0.1,1,0.4
			c0.4,0.3,0.7,0.6,1,1c0.3,0.4,0.4,0.7,0.4,1c0,0.3-0.1,0.6-0.4,1c-0.3,0.4-0.6,0.7-1,1C370.3,420.7,370,420.9,369.7,420.9z
			 M379.1,413.6v-4.9c0.2,0,0.4,0.2,0.5,0.7c0.1,0.4,0.2,1,0.2,1.8c0,0.8-0.1,1.4-0.2,1.8C379.4,413.4,379.3,413.6,379.1,413.6z"/>
		<path class="st0" d="M379.1,413.6c-0.2,0-0.4-0.2-0.5-0.6c-0.1-0.4-0.2-1-0.2-1.8c0-0.7,0.1-1.3,0.2-1.8c0.1-0.4,0.3-0.7,0.5-0.7
			V413.6z M379.1,413.6v-4.9h6.3l-2.3,2.2v-11.9h4.4v14.5H379.1z M379.6,395.5c-0.3,0-0.6-0.1-1-0.4c-0.4-0.3-0.7-0.6-1-1
			c-0.3-0.4-0.4-0.7-0.4-1c0-0.3,0.1-0.6,0.4-1c0.3-0.4,0.6-0.7,1-1c0.4-0.3,0.7-0.4,1-0.4c0.3,0,0.6,0.1,1,0.4c0.4,0.3,0.7,0.6,1,1
			c0.3,0.4,0.4,0.7,0.4,1c0,0.3-0.1,0.6-0.4,1c-0.3,0.4-0.6,0.7-1,1C380.3,395.3,379.9,395.5,379.6,395.5z M385.2,395.5
			c-0.3,0-0.6-0.1-1-0.4c-0.4-0.3-0.7-0.6-1-1c-0.3-0.4-0.4-0.7-0.4-1c0-0.3,0.1-0.6,0.4-1c0.3-0.4,0.6-0.7,1-1
			c0.4-0.3,0.7-0.4,1-0.4s0.6,0.1,1,0.4c0.4,0.3,0.7,0.6,1,1c0.3,0.4,0.4,0.7,0.4,1c0,0.3-0.1,0.6-0.4,1c-0.3,0.4-0.6,0.7-1,1
			C385.8,395.3,385.5,395.5,385.2,395.5z"/>
	</g>
	<path class="st1" d="M322,200.5l54.3,31.3l-17.4,10l-18.5-10.7L322,241.8l-3.7,2.2l-9.9,5.7l-3.7,2.2l-17.4-10l3.7-2.2l9.9-5.7
		l3.7-2.2l18.4-10.7l-18.5-10.7L322,200.5L322,200.5z M358.9,241.8l17.4,10l0,21l0,41.7l-17.4-10l0-21.3l-18.5-10.7l-3.7-2.2
		l-9.9-5.7l-3.7-2.2l0-20.1l3.7,2.2l9.9,5.7l3.7,2.2l18.5,10.7L358.9,241.8L358.9,241.8z M358.9,304.5l0,20.1l-54.3,31.3l0-20.1
		l18.5-10.7l0-21.3v-4.3l0-11.4v-4.3l17.4-10v4.3l0,11.4l0,4.3l0,21.3L358.9,304.5L358.9,304.5z M304.6,335.8l-17.4,10L233,314.5
		l17.4-10l18.4,10.7l18.5-10.7l3.7-2.2l9.9-5.7l3.7-2.2l17.4,10l-3.7,2.2l-9.9,5.7l-3.7,2.2l-18.4,10.7L304.6,335.8L304.6,335.8z
		 M250.4,304.5l-17.4-10l0-21l0-41.7l17.4,10l0,21.3l18.4,10.7l3.7,2.2l9.9,5.7l3.7,2.2l0,20.1l-3.7-2.2l-9.9-5.7l-3.7-2.2
		l-18.5-10.7L250.4,304.5L250.4,304.5z M250.4,241.8l0-20.1l54.3-31.3l0,20.1l-18.4,10.7l0,21.3v4.3v11.4v4.3l-17.4,10v-4.3l0-11.4
		l0-4.3l0-21.3L250.4,241.8L250.4,241.8z"/>
</g>
</svg>
