<svg xmlns="http://www.w3.org/2000/svg" viewBox="0 0 197.09 274.85"><defs><style>.cls-1{fill:#231f20;}.cls-2{fill:#010101;fill-rule:evenodd;}</style></defs><g id="Layer_2" data-name="Layer 2"><g id="Layer_1-2" data-name="Layer 1"><path class="cls-1" d="M1.25,208.84H15v3.88H10v16.49H6V212.72H1.25Z" transform="translate(-1.11)"/><path class="cls-1" d="M18.85,208.84H32.74v3.88H22.86v4.34H31.6v3.88H22.86v4.4H33.12v3.87H18.85Z" transform="translate(-1.11)"/><path class="cls-1" d="M43.09,224.92A9.18,9.18,0,0,1,42,229.46a7.19,7.19,0,0,1-2.92,2.89,9.6,9.6,0,0,1-4.33,1.1v-3.91a4.93,4.93,0,0,0,3.08-1.16,4.54,4.54,0,0,0,1.19-3.54v-16h4Z" transform="translate(-1.11)"/><path class="cls-1" d="M45.71,229.21,54.9,208h.22l9.19,21.17H59.66L53.8,214.32l2.9-2-7,16.88ZM52,221.85h6.11l1.41,3.38H50.75Z" transform="translate(-1.11)"/><path class="cls-1" d="M73.44,208.84a11.13,11.13,0,0,1,3.41.49,6.86,6.86,0,0,1,2.5,1.38,5.94,5.94,0,0,1,1.54,2.16,7.33,7.33,0,0,1,.52,2.84A8.59,8.59,0,0,1,81,218.2a6.59,6.59,0,0,1-1.22,2.27,5.92,5.92,0,0,1-2.23,1.64,8.24,8.24,0,0,1-3.43.63H71.28v6.47h-4V208.84Zm.69,10a3.48,3.48,0,0,0,1.53-.3,2.55,2.55,0,0,0,1-.78,3.14,3.14,0,0,0,.5-1,3.4,3.4,0,0,0,.15-1,4.27,4.27,0,0,0-.1-.85,3.05,3.05,0,0,0-.4-1,2.44,2.44,0,0,0-.92-.88,3.38,3.38,0,0,0-1.68-.36H71.28v6.14Zm3.77,2.49,5,7.86H78.26l-5.15-7.75Z" transform="translate(-1.11)"/><path class="cls-1" d="M84,229.21,93.15,208h.22l9.18,21.17H97.9L92,214.32l2.9-2-7,16.88Zm6.28-7.36h6.12l1.41,3.38H89Z" transform="translate(-1.11)"/><path class="cls-1" d="M102.58,208.84h13.73v3.88h-5v16.49h-4V212.72h-4.76Z" transform="translate(-1.11)"/><path class="cls-1" d="M120.18,208.84h4v20.37h-4Z" transform="translate(-1.11)"/><path class="cls-1" d="M140.33,213.77a16.48,16.48,0,0,0-2.37-1.05,6.83,6.83,0,0,0-2.25-.42,3.51,3.51,0,0,0-2.05.53,1.8,1.8,0,0,0-.75,1.58,1.74,1.74,0,0,0,.57,1.28,5.3,5.3,0,0,0,1.46,1,19.52,19.52,0,0,0,1.87.81,16,16,0,0,1,1.76.78,6.8,6.8,0,0,1,1.56,1.14,5,5,0,0,1,1.11,1.69,6.45,6.45,0,0,1,.41,2.47,5.39,5.39,0,0,1-.8,2.88,5.85,5.85,0,0,1-2.35,2.15,8.18,8.18,0,0,1-3.82.81,12.83,12.83,0,0,1-2.36-.23,12.45,12.45,0,0,1-2.37-.72,12.27,12.27,0,0,1-2.24-1.23l1.77-3.13a10,10,0,0,0,1.56.93,10.24,10.24,0,0,0,1.7.62,6.3,6.3,0,0,0,1.58.22,5.19,5.19,0,0,0,1.45-.21A2.69,2.69,0,0,0,137,225a1.93,1.93,0,0,0,.49-1.39,1.75,1.75,0,0,0-.4-1.1,4.15,4.15,0,0,0-1.08-.92,10.69,10.69,0,0,0-1.48-.72c-.63-.24-1.28-.51-1.94-.83a9.64,9.64,0,0,1-1.87-1.14,5.38,5.38,0,0,1-1.41-1.69,5.22,5.22,0,0,1-.54-2.48,5.77,5.77,0,0,1,.79-3.07,5.56,5.56,0,0,1,2.23-2.06,7.72,7.72,0,0,1,3.32-.85,11.61,11.61,0,0,1,4,.58,13.7,13.7,0,0,1,2.76,1.39Z" transform="translate(-1.11)"/><path class="cls-1" d="M144.06,208.84h13.73v3.88h-5v16.49h-4V212.72h-4.76Z" transform="translate(-1.11)"/><path class="cls-1" d="M157.82,229.21,167,208h.22l9.19,21.17h-4.65l-5.86-14.89,2.9-2-7,16.88Zm6.28-7.36h6.11l1.41,3.38h-8.77Z" transform="translate(-1.11)"/><path class="cls-1" d="M197.61,230l-15.44-13.95,1.19.67.08,12.45h-4.07V208h.17l15.11,13.89-.89-.38-.08-12.71h4V230Z" transform="translate(-1.11)"/><path class="cls-1" d="M10.82,273.42A23.65,23.65,0,0,1,6,273a6.11,6.11,0,0,1-2.95-1.39,5.43,5.43,0,0,1-1.5-2.71,18.43,18.43,0,0,1-.44-4.4c0-1,0-2,.13-3.06a25.17,25.17,0,0,1,.42-3q.3-1.48.66-2.88l4.91.81A31.6,31.6,0,0,0,6.51,260a27.91,27.91,0,0,0-.23,3.5c0,.86,0,1.61.07,2.26a11,11,0,0,0,.29,1.81h5.24a8,8,0,0,0,2.88-.39,1.5,1.5,0,0,0,.93-1.55V247.41h5.17V264.7a19.54,19.54,0,0,1-.39,4.27A5,5,0,0,1,19,271.65,6.32,6.32,0,0,1,16,273,26.62,26.62,0,0,1,10.82,273.42ZM11,243.16a2.11,2.11,0,0,1-1.19-.49,5.41,5.41,0,0,1-1.17-1.17,2.14,2.14,0,0,1-.5-1.19,2.08,2.08,0,0,1,.5-1.21,5.75,5.75,0,0,1,1.15-1.16,2.09,2.09,0,0,1,1.21-.49,2.06,2.06,0,0,1,1.21.49,5.5,5.5,0,0,1,1.15,1.16,1.68,1.68,0,0,1,0,2.4,6.22,6.22,0,0,1-1.18,1.17A2,2,0,0,1,11,243.16Z" transform="translate(-1.11)"/><path class="cls-1" d="M26.53,264.63V241.55H31.7v17.29h2.82v5.79Zm8,0v-5.79c.24,0,.43.27.55.79a9.9,9.9,0,0,1,.18,2.11,9.74,9.74,0,0,1-.18,2.12C35,264.37,34.76,264.63,34.52,264.63Z" transform="translate(-1.11)"/><path class="cls-1" d="M34.52,264.63c-.24,0-.43-.26-.55-.77a9.74,9.74,0,0,1-.18-2.12,9.9,9.9,0,0,1,.18-2.11c.12-.52.31-.79.55-.79Zm0,0v-5.79h8.94v5.79Zm8.94,0v-5.79c.24,0,.43.27.55.79a9.9,9.9,0,0,1,.18,2.11,9.74,9.74,0,0,1-.18,2.12C43.89,264.37,43.7,264.63,43.46,264.63Z" transform="translate(-1.11)"/><path class="cls-1" d="M43.46,264.63c-.25,0-.43-.26-.55-.77a9.74,9.74,0,0,1-.18-2.12,9.9,9.9,0,0,1,.18-2.11c.12-.52.3-.79.55-.79Zm0,0v-5.79H51l-2.68,2.64V247.41h5.17v17.22Zm4.14-21.47a2.11,2.11,0,0,1-1.19-.49,5.24,5.24,0,0,1-1.18-1.17,2.11,2.11,0,0,1-.49-1.19,2.06,2.06,0,0,1,.49-1.21,5.8,5.8,0,0,1,1.16-1.16,2.06,2.06,0,0,1,1.21-.49,2.09,2.09,0,0,1,1.21.49A5.75,5.75,0,0,1,50,239.1a2.08,2.08,0,0,1,.5,1.21,2.11,2.11,0,0,1-.52,1.19,5.9,5.9,0,0,1-1.17,1.17A2,2,0,0,1,47.6,243.16Zm6.59,0a2.11,2.11,0,0,1-1.19-.49,5.41,5.41,0,0,1-1.17-1.17,2.14,2.14,0,0,1-.5-1.19,2.08,2.08,0,0,1,.5-1.21A5.75,5.75,0,0,1,53,237.94a2.09,2.09,0,0,1,1.21-.49,2.06,2.06,0,0,1,1.21.49,5.75,5.75,0,0,1,1.15,1.16,1.68,1.68,0,0,1,0,2.4,6.22,6.22,0,0,1-1.18,1.17A2,2,0,0,1,54.19,243.16Zm-.73,21.47v-5.79h2.82v5.79Zm2.82,0v-5.79c.24,0,.43.27.55.79a9.9,9.9,0,0,1,.18,2.11,9.74,9.74,0,0,1-.18,2.12C56.71,264.37,56.52,264.63,56.28,264.63Z" transform="translate(-1.11)"/><path class="cls-1" d="M56.28,264.63c-.24,0-.43-.26-.55-.77a9.74,9.74,0,0,1-.18-2.12,9.9,9.9,0,0,1,.18-2.11c.12-.52.31-.79.55-.79Zm0,0v-5.79h4.83v-8.13h5.17v13.92Zm10,0v-5.79H70.9a4.32,4.32,0,0,0,2-.38,1.63,1.63,0,0,0,.69-1.56v-6.19h5.17v5.09a20.23,20.23,0,0,1-.39,4.34,5.28,5.28,0,0,1-1.37,2.72,5.79,5.79,0,0,1-2.88,1.37,24,24,0,0,1-4.89.4Zm16,0a19.44,19.44,0,0,1-4.38-.4,5.27,5.27,0,0,1-2.64-1.37,5.46,5.46,0,0,1-1.3-2.72,21.78,21.78,0,0,1-.37-4.34v-5.09h5.17v6.19a1.63,1.63,0,0,0,.69,1.56,4.34,4.34,0,0,0,2.06.38h4.25a8.26,8.26,0,0,0,.29-1.61c.05-.58.07-1.26.07-2a21.14,21.14,0,0,0-.29-3.45c-.2-1.14-.44-2.33-.73-3.55l5.09-.77a15.13,15.13,0,0,1,.64,2.34c.16.84.27,1.68.35,2.55s.11,1.72.11,2.55a14.71,14.71,0,0,1-1,5.95,5.63,5.63,0,0,1-3,3A13.16,13.16,0,0,1,82.33,264.63Zm-.26,0,6.15-5.79h5.94v5.79Zm12.09,0v-5.79c.24,0,.42.27.55.79a9.9,9.9,0,0,1,.18,2.11,9.74,9.74,0,0,1-.18,2.12C94.58,264.37,94.4,264.63,94.16,264.63Z" transform="translate(-1.11)"/><path class="cls-1" d="M94.16,264.63c-.25,0-.43-.26-.55-.77a9.74,9.74,0,0,1-.18-2.12,9.9,9.9,0,0,1,.18-2.11c.12-.52.3-.79.55-.79Zm0,0v-5.79h7.51L99,261.48V247.41h5.17v17.22Zm1.14-21.47a2.11,2.11,0,0,1-1.19-.49,5.46,5.46,0,0,1-1.18-1.17,2.19,2.19,0,0,1-.49-1.19,2.13,2.13,0,0,1,.49-1.21,5.8,5.8,0,0,1,1.16-1.16,2.06,2.06,0,0,1,1.21-.49,2.09,2.09,0,0,1,1.21.49,5.75,5.75,0,0,1,1.15,1.16,2.08,2.08,0,0,1,.5,1.21,2.11,2.11,0,0,1-.52,1.19,5.9,5.9,0,0,1-1.17,1.17A2,2,0,0,1,95.3,243.16Zm6.59,0a2.11,2.11,0,0,1-1.19-.49,5.41,5.41,0,0,1-1.17-1.17,2.14,2.14,0,0,1-.5-1.19,2.08,2.08,0,0,1,.5-1.21,5.75,5.75,0,0,1,1.15-1.16,2.09,2.09,0,0,1,1.21-.49,2.06,2.06,0,0,1,1.21.49,5.75,5.75,0,0,1,1.15,1.16,1.68,1.68,0,0,1,0,2.4,6.22,6.22,0,0,1-1.18,1.17A2,2,0,0,1,101.89,243.16Z" transform="translate(-1.11)"/><path class="cls-1" d="M109.62,274.85l-1.91-4.61a8.2,8.2,0,0,0,2.2-1.38A3.68,3.68,0,0,0,111,267a13.08,13.08,0,0,0,.3-3.12V247.41h5.12v16.45a16.22,16.22,0,0,1-.67,5,8.77,8.77,0,0,1-2.16,3.52A12.55,12.55,0,0,1,109.62,274.85Z" transform="translate(-1.11)"/><path class="cls-1" d="M122,264.63V241.55h5.16v17.29H130v5.79Zm8,0v-5.79c.25,0,.43.27.55.79a9.9,9.9,0,0,1,.18,2.11,9.74,9.74,0,0,1-.18,2.12C130.45,264.37,130.27,264.63,130,264.63Z" transform="translate(-1.11)"/><path class="cls-1" d="M130,264.63c-.24,0-.43-.26-.55-.77a9.74,9.74,0,0,1-.18-2.12,9.9,9.9,0,0,1,.18-2.11c.12-.52.31-.79.55-.79Zm0,0v-5.79H139v5.79Zm8.94,0v-5.79c.24,0,.43.27.55.79a9.9,9.9,0,0,1,.18,2.11,9.74,9.74,0,0,1-.18,2.12C139.39,264.37,139.2,264.63,139,264.63Z" transform="translate(-1.11)"/><path class="cls-1" d="M139,264.63c-.24,0-.43-.26-.55-.77a9.74,9.74,0,0,1-.18-2.12,9.9,9.9,0,0,1,.18-2.11c.12-.52.31-.79.55-.79Zm0,0v-5.79h8.94v5.79Zm8.94,0v-5.79c.24,0,.43.27.55.79a9.9,9.9,0,0,1,.18,2.11,9.74,9.74,0,0,1-.18,2.12C148.33,264.37,148.14,264.63,147.9,264.63Z" transform="translate(-1.11)"/><path class="cls-1" d="M147.9,264.63c-.25,0-.43-.26-.55-.77a9.74,9.74,0,0,1-.18-2.12,9.9,9.9,0,0,1,.18-2.11c.12-.52.3-.79.55-.79Zm0,0v-5.79h8.94v5.79Zm8.94,0v-5.79c.24,0,.42.27.55.79a9.9,9.9,0,0,1,.18,2.11,9.74,9.74,0,0,1-.18,2.12C157.26,264.37,157.08,264.63,156.84,264.63Z" transform="translate(-1.11)"/><path class="cls-1" d="M156.84,264.63c-.25,0-.43-.26-.55-.77a9.06,9.06,0,0,1-.19-2.12,9.2,9.2,0,0,1,.19-2.11c.12-.52.3-.79.55-.79Zm0,0v-5.79h8.93v5.79Zm8.93,0v-5.79c.25,0,.43.27.55.79a9.2,9.2,0,0,1,.19,2.11,9.06,9.06,0,0,1-.19,2.12C166.2,264.37,166,264.63,165.77,264.63Z" transform="translate(-1.11)"/><path class="cls-1" d="M165.77,264.63c-.24,0-.42-.26-.55-.77a9.74,9.74,0,0,1-.18-2.12,9.9,9.9,0,0,1,.18-2.11c.13-.52.31-.79.55-.79Zm0,0v-5.79h6.85a6.89,6.89,0,0,0,2.61-.44,5.41,5.41,0,0,0,1.85-1.19,7.08,7.08,0,0,0,1.26-1.7,11.3,11.3,0,0,0,.84-2l4.8,1.61A17.28,17.28,0,0,1,182,259.5a10.42,10.42,0,0,1-2.75,2.95,11,11,0,0,1-3.41,1.65,13.86,13.86,0,0,1-3.84.53Zm19.27,0a2.84,2.84,0,0,1-3-2.05l-2.2-5.72a7.26,7.26,0,0,0-1.41-2.36,4.93,4.93,0,0,0-2.18-1.35,11.16,11.16,0,0,0-3.33-.42l-2,0a22.86,22.86,0,0,0-2.35.22l-.77-5.71c1-.1,1.86-.19,2.71-.26s1.66-.11,2.42-.11a15.68,15.68,0,0,1,5.44.83,8.75,8.75,0,0,1,3.7,2.54,13.72,13.72,0,0,1,2.44,4.47l1.5,4.1h2.09v5.79ZM177,273.28a2.16,2.16,0,0,1-1.19-.5,5.41,5.41,0,0,1-1.17-1.17,2.11,2.11,0,0,1-.49-1.19,2.06,2.06,0,0,1,.49-1.21,5.75,5.75,0,0,1,1.16-1.15,2.06,2.06,0,0,1,1.2-.5,2.08,2.08,0,0,1,1.21.5,5.75,5.75,0,0,1,1.16,1.15,2.06,2.06,0,0,1,.49,1.21,2.09,2.09,0,0,1-.51,1.19,5.9,5.9,0,0,1-1.17,1.17A2.06,2.06,0,0,1,177,273.28Zm11.07-8.65v-5.79c.24,0,.42.27.55.79a9.9,9.9,0,0,1,.18,2.11,9.74,9.74,0,0,1-.18,2.12C188.47,264.37,188.29,264.63,188.05,264.63Z" transform="translate(-1.11)"/><path class="cls-1" d="M188.05,264.63c-.25,0-.43-.26-.55-.77a9.64,9.64,0,0,1-.19-2.12,9.8,9.8,0,0,1,.19-2.11c.12-.52.3-.79.55-.79Zm0,0v-5.79h7.51l-2.68,2.64V247.41h5.17v17.22Zm.7-21.47a2.09,2.09,0,0,1-1.19-.49,5.24,5.24,0,0,1-1.18-1.17,2.11,2.11,0,0,1-.49-1.19,2.06,2.06,0,0,1,.49-1.21,5.8,5.8,0,0,1,1.16-1.16,2.06,2.06,0,0,1,1.21-.49,2.09,2.09,0,0,1,1.21.49,5.75,5.75,0,0,1,1.15,1.16,2.06,2.06,0,0,1,.49,1.21,2.09,2.09,0,0,1-.51,1.19,5.9,5.9,0,0,1-1.17,1.17A2,2,0,0,1,188.75,243.16Zm6.59,0a2.11,2.11,0,0,1-1.19-.49A5.41,5.41,0,0,1,193,241.5a2.14,2.14,0,0,1-.5-1.19,2.08,2.08,0,0,1,.5-1.21,5.75,5.75,0,0,1,1.15-1.16,1.74,1.74,0,0,1,2.42,0,5.75,5.75,0,0,1,1.15,1.16,1.68,1.68,0,0,1,0,2.4,6.22,6.22,0,0,1-1.18,1.17A2,2,0,0,1,195.34,243.16Z" transform="translate(-1.11)"/><path class="cls-2" d="M120.38,11.89l64.37,37.16L164.15,61,142.26,48.31,120.38,61,116,63.5,104.2,70.28l-4.42,2.56L79.18,61l4.43-2.56,11.75-6.78,4.42-2.56,21.88-12.63L99.78,23.79l20.6-11.9ZM164.15,61l20.59,11.89v74.32l-20.59-11.89V110L142.26,97.37l-4.42-2.56L126.09,88l-4.42-2.56V61.69l4.42,2.55L137.84,71l4.42,2.55,21.89,12.64V61Zm0,74.32v23.79L99.78,196.22V172.43l21.89-12.63V110.74l20.59-11.89V147.9l21.89-12.63ZM99.78,172.43l-20.6,11.89L14.82,147.16l20.6-11.89L57.3,147.91l21.88-12.64,4.43-2.55,11.75-6.79,4.42-2.55,20.6,11.89L116,137.82l-11.75,6.79-4.42,2.55L77.9,159.8l21.88,12.63ZM35.41,135.27,14.82,123.38V49.06L35.41,61V86.22L57.3,98.85l4.42,2.56,11.75,6.78,4.42,2.55v23.79L73.47,132l-11.75-6.78-4.42-2.55L35.42,110v25.27Zm0-74.32V37.16L99.78,0V23.79L77.9,36.42V85.47L57.3,97.37V48.31L35.41,61Z" transform="translate(-1.11)"/></g></g></svg>